<svg width="271" height="63" viewBox="0 0 271 63" fill="none" xmlns="http://www.w3.org/2000/svg">
<path d="M32.3986 29.0222L29.2882 38.8585H27.0551L23.9979 29.0488V38.8585H21.0736V20.2493H23.9979L28.1717 32.558L32.3986 20.2493H35.323V38.8585H32.3986V29.0222ZM41.1273 23.1204C40.702 23.1204 40.3298 22.9609 40.0108 22.6419C39.6918 22.3229 39.5323 21.9507 39.5323 21.5254C39.5323 21.1177 39.6918 20.7633 40.0108 20.462C40.3298 20.143 40.702 19.9834 41.1273 19.9834C41.535 19.9834 41.8894 20.143 42.1907 20.462C42.5097 20.7633 42.6692 21.1177 42.6692 21.5254C42.6692 21.9507 42.5097 22.3229 42.1907 22.6419C41.8894 22.9609 41.535 23.1204 41.1273 23.1204ZM39.5854 25.5396H42.5097V38.8585H39.5854V25.5396ZM53.3926 30.4844C53.3926 29.7754 53.1888 29.2083 52.7812 28.783C52.3912 28.3399 51.8596 28.1183 51.1861 28.1183C50.6367 28.1183 50.0429 28.2778 49.4049 28.5969V38.8585H46.5072V25.5396H49.0859L49.4315 25.6991C50.1759 25.451 50.9468 25.327 51.7444 25.327C52.6305 25.327 53.4015 25.4865 54.0572 25.8055C54.7661 26.1245 55.3156 26.603 55.7055 27.241C56.1131 27.8791 56.3169 28.6855 56.3169 29.6602V38.8585H53.3926V30.4844ZM63.3087 39.2041C60.6148 39.151 59.2678 37.866 59.2678 35.3494V20.2493H62.2453V25.5396H64.7708L64.1328 28.2778H62.2453V35.3494C62.2453 35.9519 62.4136 36.3596 62.7504 36.5722C63.0871 36.7672 63.5656 36.8647 64.186 36.8647L63.3087 39.2041ZM77.7902 26.284V38.8585H74.8659V20.2493H77.7902L84.9946 32.7441V20.2493H87.9455V38.8585H84.9946L77.7902 26.284ZM93.964 34.8974C93.964 35.3937 94.097 35.7836 94.3628 36.0671C94.6464 36.333 95.054 36.4659 95.5857 36.4659C96.401 36.4659 97.4909 36.1114 98.8556 35.4025L99.919 37.9281C99.281 38.3357 98.5543 38.6458 97.7391 38.8585C96.9238 39.0712 96.1085 39.1775 95.2933 39.1775C93.9818 39.1775 92.9361 38.8585 92.1563 38.2205C91.3942 37.5647 91.0131 36.59 91.0131 35.2962V29.8463C91.0131 28.4108 91.4562 27.2942 92.3424 26.4967C93.2463 25.6991 94.4337 25.3004 95.9047 25.3004C97.3757 25.3004 98.5189 25.6991 99.3341 26.4967C100.167 27.2765 100.584 28.3665 100.584 29.7666V33.8074L93.964 34.153V34.8974ZM97.6327 29.8198C97.6327 29.2881 97.4643 28.8804 97.1276 28.5969C96.7909 28.3133 96.3744 28.1715 95.8781 28.1715C95.2047 28.1715 94.7173 28.3487 94.416 28.7032C94.1147 29.0577 93.964 29.4476 93.964 29.8729V31.468L97.6327 31.2287V29.8198ZM110.033 31.7604L108.093 38.8585H105.248L100.968 25.5396H104.158L106.577 33.6745L108.731 25.5396H111.496L113.729 33.6745L115.909 25.5396H119.046L114.739 38.8585H111.947L110.033 31.7604ZM128.996 20.2493H134.419C135.89 20.2493 137.113 20.6569 138.088 21.4722C139.062 22.2874 139.55 23.4483 139.55 24.9548C139.55 25.6637 139.435 26.3372 139.204 26.9752C138.974 27.6132 138.504 28.1715 137.795 28.65L137.769 28.7032V28.7298C138.548 29.0842 139.195 29.6514 139.709 30.4312C140.241 31.211 140.507 32.2035 140.507 33.4087C140.507 34.3303 140.321 35.2076 139.949 36.0406C139.576 36.8558 138.965 37.5293 138.114 38.061C137.264 38.5927 136.165 38.8585 134.818 38.8585H128.996V20.2493ZM133.196 27.8791C134.206 27.8791 134.951 27.693 135.429 27.3208C135.908 26.9486 136.147 26.3106 136.147 25.4067C136.147 24.5737 135.925 23.9977 135.482 23.6787C135.039 23.342 134.366 23.1736 133.462 23.1736H131.92V27.8791H133.196ZM133.542 36.1735C134.357 36.1735 135.013 36.1114 135.509 35.9874C136.023 35.8456 136.422 35.5709 136.705 35.1633C137.007 34.7556 137.157 34.153 137.157 33.3555C137.157 32.3453 136.847 31.6541 136.227 31.2819C135.606 30.892 134.791 30.697 133.781 30.697H131.92V36.1735H133.542ZM143.16 25.5396H145.872L146.084 25.646C146.811 25.3978 147.493 25.2738 148.131 25.2738C148.575 25.2738 149.221 25.3624 150.072 25.5396L150.604 25.646L149.913 28.4905C149.416 28.2424 148.929 28.1183 148.45 28.1183C147.795 28.1183 147.236 28.3222 146.776 28.7298C146.315 29.1197 146.084 29.6425 146.084 30.2983V38.8585H143.16V25.5396ZM154.247 34.8974C154.247 35.3937 154.38 35.7836 154.645 36.0671C154.929 36.333 155.337 36.4659 155.868 36.4659C156.684 36.4659 157.774 36.1114 159.138 35.4025L160.202 37.9281C159.564 38.3357 158.837 38.6458 158.022 38.8585C157.206 39.0712 156.391 39.1775 155.576 39.1775C154.264 39.1775 153.219 38.8585 152.439 38.2205C151.677 37.5647 151.296 36.59 151.296 35.2962V29.8463C151.296 28.4108 151.739 27.2942 152.625 26.4967C153.529 25.6991 154.716 25.3004 156.187 25.3004C157.658 25.3004 158.802 25.6991 159.617 26.4967C160.45 27.2765 160.866 28.3665 160.866 29.7666V33.8074L154.247 34.153V34.8974ZM157.915 29.8198C157.915 29.2881 157.747 28.8804 157.41 28.5969C157.074 28.3133 156.657 28.1715 156.161 28.1715C155.487 28.1715 155 28.3487 154.699 28.7032C154.397 29.0577 154.247 29.4476 154.247 29.8729V31.468L157.915 31.2287V29.8198ZM173.111 38.8585C171.197 39.0535 169.815 39.151 168.964 39.151C167.103 39.151 165.623 38.8054 164.524 38.1142C163.425 37.423 162.876 36.1735 162.876 34.3657V32.1592C162.876 30.4046 163.487 29.226 164.71 28.6234C165.295 28.3399 165.96 28.1981 166.704 28.1981C167.36 28.1981 168.007 28.2867 168.645 28.4639C169.283 28.6412 169.797 28.8361 170.187 29.0488C170.187 28.393 169.921 27.95 169.389 27.7196C168.857 27.4714 168.175 27.3474 167.342 27.3474L167.581 25.327C169.283 25.327 170.532 25.6017 171.33 26.1511C172.145 26.6828 172.641 27.3208 172.819 28.0652C173.014 28.8095 173.111 29.7666 173.111 30.9363V38.8585ZM170.187 32.1592C169.868 31.9288 169.416 31.7161 168.831 31.5212C168.264 31.3085 167.741 31.2022 167.262 31.2022C166.837 31.2022 166.491 31.3085 166.226 31.5212C165.96 31.7338 165.827 32.0706 165.827 32.5314V33.9935C165.827 35.6063 166.775 36.4127 168.671 36.4127C169.221 36.4127 169.726 36.3684 170.187 36.2798V32.1592ZM179.798 39.2041C177.104 39.151 175.757 37.866 175.757 35.3494V20.2493H178.735V25.5396H181.26L180.622 28.2778H178.735V35.3494C178.735 35.9519 178.903 36.3596 179.24 36.5722C179.577 36.7672 180.055 36.8647 180.675 36.8647L179.798 39.2041ZM190.47 30.697C190.47 29.74 190.257 29.0577 189.831 28.65C189.424 28.2424 188.901 28.0386 188.263 28.0386C187.926 28.0386 187.598 28.0918 187.279 28.1981C186.96 28.2867 186.703 28.393 186.508 28.5171V38.8585H183.584V20.2493H186.508V25.646C187.129 25.4156 187.846 25.3004 188.662 25.3004C189.583 25.3004 190.407 25.4687 191.134 25.8055C191.843 26.1245 192.392 26.603 192.782 27.241C193.19 27.8791 193.394 28.6855 193.394 29.6602V38.8585H190.47V30.697ZM198.875 34.8974C198.875 35.3937 199.008 35.7836 199.273 36.0671C199.557 36.333 199.965 36.4659 200.496 36.4659C201.312 36.4659 202.402 36.1114 203.766 35.4025L204.83 37.9281C204.192 38.3357 203.465 38.6458 202.65 38.8585C201.834 39.0712 201.019 39.1775 200.204 39.1775C198.892 39.1775 197.847 38.8585 197.067 38.2205C196.305 37.5647 195.924 36.59 195.924 35.2962V29.8463C195.924 28.4108 196.367 27.2942 197.253 26.4967C198.157 25.6991 199.344 25.3004 200.815 25.3004C202.286 25.3004 203.429 25.6991 204.245 26.4967C205.078 27.2765 205.494 28.3665 205.494 29.7666V33.8074L198.875 34.153V34.8974ZM202.543 29.8198C202.543 29.2881 202.375 28.8804 202.038 28.5969C201.701 28.3133 201.285 28.1715 200.789 28.1715C200.115 28.1715 199.628 28.3487 199.327 28.7032C199.025 29.0577 198.875 29.4476 198.875 29.8729V31.468L202.543 31.2287V29.8198ZM218.917 26.284V38.8585H215.993V20.2493H218.917L226.122 32.7441V20.2493H229.072V38.8585H226.122L218.917 26.284ZM233.283 20.2493H242.162V23.1736H236.208V27.8791H239.929L238.972 30.6705H236.208V38.8585H233.283V20.2493ZM247.032 23.2002H243.204V20.2493H253.891V23.2002H249.956V38.8585H247.032V23.2002Z" fill="black"/>
<rect width="271" height="6" fill="black"/>
<rect y="57" width="271" height="6" fill="black"/>
</svg>
