<svg width="783" height="166" viewBox="0 0 783 166" fill="none" xmlns="http://www.w3.org/2000/svg">
<path d="M10.4631 39.1003H37.8282C45.2507 39.1003 51.4213 41.1572 56.3398 45.2709C61.2584 49.3846 63.7176 55.2421 63.7176 62.8435C63.7176 66.4206 63.1364 69.8189 61.9738 73.0383C60.8112 76.2578 58.4414 79.0747 54.8642 81.4893L54.7301 81.7576V81.8917C58.665 83.6803 61.9291 86.542 64.5225 90.4769C67.2054 94.4117 68.5468 99.4197 68.5468 105.501C68.5468 110.151 67.6078 114.578 65.7298 118.781C63.8518 122.895 60.7665 126.293 56.474 128.976C52.1814 131.659 46.6368 133 39.8403 133H10.4631V39.1003ZM31.6576 77.5992C36.755 77.5992 40.511 76.6602 42.9256 74.7822C45.3401 72.9042 46.5474 69.6848 46.5474 65.1239C46.5474 60.9208 45.4296 58.0144 43.1939 56.4047C40.9582 54.7055 37.5599 53.856 32.999 53.856H25.2188V77.5992H31.6576ZM33.4015 119.452C37.5152 119.452 40.824 119.139 43.328 118.513C45.9214 117.797 47.9336 116.411 49.3644 114.354C50.8847 112.297 51.6448 109.257 51.6448 105.233C51.6448 100.135 50.0798 96.6474 46.9498 94.7694C43.8199 92.802 39.7062 91.8183 34.6087 91.8183H25.2188V119.452H33.4015ZM81.9348 65.7946H95.6173L96.6905 66.3312C100.357 65.0792 103.8 64.4532 107.019 64.4532C109.255 64.4532 112.519 64.9004 116.812 65.7946L119.495 66.3312L116.007 80.6845C113.503 79.4325 111.044 78.8065 108.629 78.8065C105.32 78.8065 102.503 79.8349 100.178 81.8917C97.853 83.8592 96.6905 86.4973 96.6905 89.8061V133H81.9348V65.7946ZM137.876 113.013C137.876 115.517 138.547 117.484 139.889 118.915C141.319 120.256 143.376 120.927 146.059 120.927C150.173 120.927 155.673 119.139 162.559 115.561L167.924 128.305C164.705 130.362 161.038 131.927 156.925 133C152.811 134.073 148.697 134.61 144.584 134.61C137.966 134.61 132.69 133 128.755 129.781C124.909 126.472 122.987 121.553 122.987 115.025V87.5257C122.987 80.282 125.222 74.648 129.694 70.6238C134.255 66.5995 140.246 64.5874 147.669 64.5874C155.091 64.5874 160.859 66.5995 164.973 70.6238C169.176 74.5586 171.278 80.0585 171.278 87.1233V107.513L137.876 109.257V113.013ZM156.388 87.3916C156.388 84.7087 155.538 82.6519 153.839 81.221C152.14 79.7902 150.039 79.0747 147.535 79.0747C144.136 79.0747 141.677 79.969 140.157 81.7576C138.637 83.5462 137.876 85.5136 137.876 87.6599V95.7084L156.388 94.5011V87.3916ZM233.063 133C223.405 133.984 216.429 134.476 212.137 134.476C202.747 134.476 195.28 132.732 189.735 129.244C184.19 125.756 181.418 119.452 181.418 110.33V99.1961C181.418 90.3427 184.503 84.3957 190.674 81.3552C193.625 79.9243 196.979 79.2089 200.735 79.2089C204.044 79.2089 207.308 79.656 210.527 80.5503C213.747 81.4446 216.34 82.4283 218.307 83.5014C218.307 80.1926 216.966 77.9569 214.283 76.7943C211.6 75.5423 208.157 74.9163 203.954 74.9163L205.161 64.7215C213.747 64.7215 220.051 66.1077 224.075 68.8799C228.189 71.5628 230.693 74.7822 231.587 78.5382C232.571 82.2942 233.063 87.1233 233.063 93.0256V133ZM218.307 99.1961C216.698 98.0335 214.417 96.9604 211.466 95.9767C208.604 94.9036 205.966 94.367 203.552 94.367C201.405 94.367 199.662 94.9036 198.32 95.9767C196.979 97.0498 196.308 98.749 196.308 101.074V108.452C196.308 116.59 201.092 120.659 210.661 120.659C213.434 120.659 215.982 120.435 218.307 119.988V99.1961ZM266.805 134.744C253.212 134.476 246.415 127.992 246.415 115.293V39.1003H261.439V65.7946H274.183L270.963 79.6113H261.439V115.293C261.439 118.334 262.289 120.391 263.988 121.464C265.687 122.447 268.102 122.939 271.232 122.939L266.805 134.744ZM320.652 91.8183C320.652 86.9891 319.579 83.5462 317.432 81.4893C315.375 79.4325 312.737 78.404 309.518 78.404C307.819 78.404 306.164 78.6723 304.555 79.2089C302.945 79.656 301.648 80.1926 300.665 80.8186V133H285.909V39.1003H300.665V66.3312C303.795 65.1686 307.416 64.5874 311.53 64.5874C316.18 64.5874 320.339 65.4369 324.005 67.1361C327.582 68.7458 330.355 71.1603 332.322 74.3798C334.379 77.5992 335.407 81.6682 335.407 86.5867V133H320.652V91.8183ZM363.063 113.013C363.063 115.517 363.733 117.484 365.075 118.915C366.506 120.256 368.563 120.927 371.245 120.927C375.359 120.927 380.859 119.139 387.745 115.561L393.111 128.305C389.891 130.362 386.225 131.927 382.111 133C377.997 134.073 373.884 134.61 369.77 134.61C363.152 134.61 357.876 133 353.941 129.781C350.096 126.472 348.173 121.553 348.173 115.025V87.5257C348.173 80.282 350.409 74.648 354.88 70.6238C359.441 66.5995 365.433 64.5874 372.855 64.5874C380.278 64.5874 386.046 66.5995 390.159 70.6238C394.363 74.5586 396.464 80.0585 396.464 87.1233V107.513L363.063 109.257V113.013ZM381.574 87.3916C381.574 84.7087 380.725 82.6519 379.026 81.221C377.327 79.7902 375.225 79.0747 372.721 79.0747C369.323 79.0747 366.863 79.969 365.343 81.7576C363.823 83.5462 363.063 85.5136 363.063 87.6599V95.7084L381.574 94.5011V87.3916ZM415.324 126.293C415.324 128.081 414.653 129.646 413.312 130.988C411.97 132.329 410.36 133 408.482 133C406.694 133 405.129 132.329 403.788 130.988C402.446 129.646 401.775 128.081 401.775 126.293C401.775 124.415 402.446 122.805 403.788 121.464C405.129 120.122 406.694 119.452 408.482 119.452C410.36 119.452 411.97 120.122 413.312 121.464C414.653 122.805 415.324 124.415 415.324 126.293ZM477.241 127.5C472.591 132.061 466.107 134.341 457.79 134.341C452.782 134.341 448.132 133.402 443.839 131.524C439.547 129.646 436.059 126.695 433.376 122.671C430.783 118.647 429.486 113.639 429.486 107.647V65.5264C429.486 59.2664 430.47 54.2584 432.437 50.5024C434.494 46.657 437.401 43.5717 441.157 41.2466C445.091 39.0109 449.921 37.893 455.644 37.893C462.619 37.893 468.924 39.3686 474.558 42.3197L472.412 47.4171C467.314 45.5391 462.485 44.6001 457.924 44.6001C452.469 44.6001 447.595 45.9416 443.303 48.6244C439.1 51.3073 436.998 56.5388 436.998 64.3191V107.915C436.998 113.907 438.921 118.602 442.766 122C446.701 125.399 451.664 127.098 457.656 127.098C463.737 127.098 468.566 125.354 472.144 121.866C475.721 118.378 477.509 113.773 477.509 108.05V100.135H468.656L466.107 92.7573H484.619V133H479.119L477.241 127.5ZM549.424 133C539.766 133.984 532.791 134.476 528.498 134.476C519.108 134.476 511.641 132.732 506.096 129.244C500.552 125.756 497.779 119.452 497.779 110.33V99.1961C497.779 90.3427 500.865 84.3957 507.035 81.3552C509.986 79.8349 513.742 79.0747 518.303 79.0747C522.506 79.0747 526.754 79.7902 531.047 81.221C535.339 82.5625 538.961 84.351 541.912 86.5867C541.912 81.6682 540.481 77.778 537.62 74.9163C534.758 71.9652 529.258 70.4896 521.12 70.4896L521.523 64.7215C530.108 64.7215 536.412 66.1077 540.437 68.8799C544.55 71.5628 547.054 74.7822 547.949 78.5382C548.932 82.2942 549.424 87.1233 549.424 93.0256V133ZM541.912 92.3548C538.246 90.6557 534.311 89.1801 530.108 87.9281C525.994 86.6762 522.193 86.0502 518.706 86.0502C509.673 86.0502 505.157 90.5663 505.157 99.5985V111.269C505.157 117.082 507.169 121.33 511.194 124.012C515.218 126.606 520.941 127.903 528.364 127.903C532.209 127.903 536.725 127.545 541.912 126.829V92.3548ZM562.437 65.7946H569.949L569.547 70.4896C573.75 66.5548 579.25 64.5874 586.046 64.5874C588.461 64.5874 591.77 64.9898 595.973 65.7946L593.961 72.6359C591.099 71.7416 588.103 71.2945 584.973 71.2945C580.859 71.2945 577.327 72.0546 574.376 73.5749C571.425 75.0952 569.949 77.3756 569.949 80.4162V133H562.437V65.7946ZM603.755 86.5867C603.755 77.1968 607.556 70.7579 615.157 67.2702C618.824 65.5711 623.206 64.7215 628.303 64.7215C631.612 64.7215 634.787 65.1239 637.827 65.9288C640.957 66.7336 643.595 67.8962 645.742 69.4165V39.1003H653.254V133L645.876 133.671C640.063 134.297 635.502 134.61 632.193 134.61C628.884 134.61 625.754 134.297 622.803 133.671C619.942 133.045 617.08 132.016 614.218 130.585C610.999 128.976 608.45 126.606 606.572 123.476C604.694 120.346 603.755 116.5 603.755 111.94V86.5867ZM645.742 75.9895C643.327 74.648 640.555 73.5749 637.425 72.7701C634.295 71.8758 631.21 71.4286 628.169 71.4286C623.161 71.4286 619.047 72.6806 615.828 75.1846C612.698 77.5992 611.133 81.534 611.133 86.9891V112.074C611.133 122.537 618.332 127.768 632.73 127.768C636.128 127.768 640.465 127.366 645.742 126.561V75.9895ZM707.376 128.305C704.157 130.362 700.49 131.927 696.376 133C692.263 134.073 688.149 134.61 684.035 134.61C677.417 134.61 672.141 133 668.206 129.781C664.361 126.472 662.438 121.553 662.438 115.025V87.5257C662.438 80.282 664.674 74.648 669.145 70.6238C673.706 66.5995 679.698 64.5874 687.12 64.5874C694.543 64.5874 700.311 66.5995 704.425 70.6238C708.628 74.5586 710.729 80.0585 710.729 87.1233V104.562L669.95 106.842V115.025C669.95 119.317 671.336 122.537 674.109 124.683C676.881 126.829 680.503 127.903 684.974 127.903C691.234 127.903 697.718 126.114 704.425 122.537L707.376 128.305ZM703.218 86.1843C703.218 80.6397 701.474 76.7496 697.986 74.5139C694.498 72.1888 690.832 71.0262 686.986 71.0262C682.068 71.0262 677.999 72.3676 674.779 75.0505C671.56 77.7333 669.95 81.9365 669.95 87.6599V99.4644L703.218 97.8547V86.1843ZM766.612 86.9891C766.612 81.534 765.003 77.5992 761.783 75.1846C758.653 72.6806 754.584 71.4286 749.576 71.4286C746.536 71.4286 743.45 71.8758 740.32 72.7701C737.19 73.5749 734.418 74.648 732.004 75.9895V133H724.492V65.7946H732.004L731.467 70.3555C733.613 68.4775 736.341 67.0914 739.65 66.1971C742.959 65.2134 746.402 64.7215 749.979 64.7215C754.897 64.7215 759.1 65.5264 762.588 67.1361C766.165 68.7458 768.937 71.1603 770.905 74.3798C772.962 77.5992 773.99 81.6682 773.99 86.5867V133H766.612V86.9891Z" fill="black"/>
</svg>
